Coordinates
version=1
nRows=6
nColumns=63
inDegrees=yes

Units are S.I. units (second, meters, Newtons, ...)
If the header above contains a line with 'inDegrees', this indicates whether rotational values are in degrees (yes) or radians (no).

endheader
time	pelvis_tilt	pelvis_list	pelvis_rotation	pelvis_tx	pelvis_ty	pelvis_tz	hip_flexion_r	hip_adduction_r	hip_rotation_r	knee_angle_r	knee_angle_r_beta	ankle_angle_r	subtalar_angle_r	mtp_angle_r	hip_flexion_l	hip_adduction_l	hip_rotation_l	knee_angle_l	knee_angle_l_beta	ankle_angle_l	subtalar_angle_l	mtp_angle_l	L5_S1_Flex_Ext	L5_S1_Lat_Bending	L5_S1_axial_rotation	L4_L5_Flex_Ext	L4_L5_Lat_Bending	L4_L5_axial_rotation	L3_L4_Flex_Ext	L3_L4_Lat_Bending	L3_L4_axial_rotation	L2_L3_Flex_Ext	L2_L3_Lat_Bending	L2_L3_axial_rotation	L1_L2_Flex_Ext	L1_L2_Lat_Bending	L1_L2_axial_rotation	L1_T12_Flex_Ext	L1_T12_Lat_Bending	L1_T12_axial_rotation	Abs_r3	Abs_r2	Abs_r1	Abs_t1	Abs_t2	neck_flexion	neck_bending	neck_rotation	arm_flex_r	arm_add_r	arm_rot_r	elbow_flex_r	pro_sup_r	wrist_flex_r	wrist_dev_r	arm_flex_l	arm_add_l	arm_rot_l	elbow_flex_l	pro_sup_l	wrist_flex_l	wrist_dev_l
      2.56666667	      4.38188420	     57.69390005	    -95.42577612	     -0.01467633	      0.48862331	     -0.06418631	    121.21869163	     -1.67268410	      4.36060000	     96.81978313	      1.68982400	     28.21102998	     -6.09944135	      0.00000000	    119.60519210	    -10.38578936	      0.76059650	     98.40275446	      1.71745206	     31.35575716	    -10.45643954	      0.00000000	     -0.01528797	     -0.52971750	      0.71540758	     -0.02839129	     -0.70452428	      0.76012056	     -0.02511661	     -1.28795513	      0.76012056	     -0.01747262	     -1.28795513	      0.62598164	     -0.01419641	     -1.08019993	      0.58126866	     -0.00873555	     -0.82053241	      0.53655569	     -0.10920045	     -5.99227032	      3.97888236	      0.00000000	      0.00000000	      0.00000000	      0.00000000	      0.00000000	     21.79037801	    -16.50517891	     -6.89998474	     39.28220497	     89.99559364	      0.00000000	      0.00000000	     22.59166514	    -16.04569843	     -2.38637547	     38.60331221	     89.99559364	      0.00000000	      0.00000000
      2.60000000	      6.07935026	     56.83933172	    -98.04636007	     -0.01739955	      0.49756046	     -0.05986137	    119.33221711	     -0.13932791	      4.75593445	     95.31055108	      1.66348293	     28.25385063	     -5.30935420	      0.00000000	    117.68574641	    -11.52948550	      0.39494755	     97.37024867	      1.69943143	     30.43776018	    -11.98878459	      0.00000000	     -0.01237727	     -0.64541891	      0.87982173	     -0.02298584	     -0.85840715	      0.93481059	     -0.02033462	     -1.56927154	      0.93481059	     -0.01414599	     -1.56927154	      0.76984401	     -0.01149354	     -1.31613825	      0.71485515	     -0.00707237	     -0.99975389	      0.65986630	     -0.08840963	     -7.30110782	      4.89330450	      0.00000000	      0.00000000	      0.00000000	      0.00000000	      0.00000000	     21.51031024	    -15.36111874	     -6.97054487	     37.97754043	     89.99559364	      0.00000000	      0.00000000	     20.75695664	    -16.12984542	     -3.97795763	     40.44693648	     89.99559364	      0.00000000	      0.00000000
      2.63333333	      6.96066169	     55.82399481	    -99.55971379	     -0.02020694	      0.51246704	     -0.05425318	    116.46747475	      1.17379334	      5.24501125	     92.91219950	      1.62162380	     28.14734596	     -5.91691631	      0.00000000	    114.91852289	    -12.20572060	      0.13021186	     95.28526517	      1.66304161	     29.83463775	    -12.47880536	      0.00000000	     -0.01337254	     -0.73133856	      1.05381883	     -0.02483415	     -0.97268029	      1.11968251	     -0.02196975	     -1.77817658	      1.11968251	     -0.01528348	     -1.77817658	      0.92209148	     -0.01241774	     -1.49134560	      0.85622780	     -0.00764107	     -1.13284343	      0.79036413	     -0.09551875	     -8.27304809	      5.86102421	      0.00000000	      0.00000000	      0.00000000	      0.00000000	      0.00000000	     20.50932146	    -14.35522838	     -7.68791073	     37.14979968	     89.99559364	      0.00000000	      0.00000000	     19.27050748	    -15.98742975	     -4.75617418	     41.38097799	     89.99559364	      0.00000000	      0.00000000
      2.66666667	      7.91173745	     54.83599820	   -101.19059176	     -0.02301013	      0.53278664	     -0.05088867	    113.24678666	      2.53681579	      5.81468215	     89.45573275	      1.56129707	     27.17306795	     -7.10393303	      0.00000000	    111.72151674	    -12.87667058	     -0.26312531	     92.12281386	      1.60784642	     28.30933319	    -13.17183731	      0.00000000	     -0.01477542	     -0.82493280	      1.23869135	     -0.02743943	     -1.09716063	      1.31610956	     -0.02427454	     -2.00574162	      1.31610956	     -0.01688683	     -2.00574162	      1.08385494	     -0.01372045	     -1.68220297	      1.00643673	     -0.00844267	     -1.27782091	      0.92901852	     -0.10553934	     -9.33180485	      6.88922971	      0.00000000	      0.00000000	      0.00000000	      0.00000000	      0.00000000	     19.75061486	    -13.21544487	     -9.57143979	     36.59745055	     89.99559364	      0.00000000	      0.00000000	     18.39541741	    -16.08658455	     -4.45724233	     41.60237817	     89.99559364	      0.00000000	      0.00000000
      2.70000000	      7.76795223	     53.57608809	   -102.64577291	     -0.02565524	      0.56053769	     -0.04870751	    108.71359298	      4.14998167	      5.68677968	     84.11802972	      1.46813658	     25.68747542	     -7.83696759	      0.00000000	    107.71691946	    -13.84523260	     -0.16634258	     87.75023987	      1.53153061	     25.69818762	    -14.78655899	      0.00000000	     -0.01451343	     -0.82227518	      1.40521424	     -0.02695288	     -1.09362598	      1.49304013	     -0.02384411	     -1.99927986	      1.49304013	     -0.01658739	     -1.99927986	      1.22956246	     -0.01347717	     -1.67678354	      1.14173657	     -0.00829297	     -1.27370425	      1.05391068	     -0.10366795	     -9.30174124	      7.81538005	      0.00000000	      0.00000000	      0.00000000	      0.00000000	      0.00000000	     19.74792991	    -12.25858848	    -10.03301127	     35.37301636	     89.99559364	      0.00000000	      0.00000000	     18.03595475	    -16.28469064	     -3.46698085	     39.97588729	     89.99559364	      0.00000000	      0.00000000
      2.73333333	      7.85928915	     51.57766919	   -104.99500989	     -0.02852581	      0.59468964	     -0.04407974	    102.51952745	      6.23073134	      5.89831333	     77.08770299	      1.34543423	     23.69434652	     -7.71667188	      0.00000000	    102.02203803	    -15.55133547	     -0.87045497	     82.12023284	      1.43326845	     23.06367628	    -16.30100317	      0.00000000	     -0.01598667	     -0.81073337	      1.53916825	     -0.02968885	     -1.07827539	      1.63536627	     -0.02626450	     -1.97121712	      1.63536627	     -0.01827117	     -1.97121712	      1.34677222	     -0.01484522	     -1.65324749	      1.25057420	     -0.00913478	     -1.25582599	      1.15437619	     -0.11419119	     -9.17117806	      8.56039207	      0.00000000	      0.00000000	      0.00000000	      0.00000000	      0.00000000	     19.48315522	    -10.69551414	    -10.64333853	     34.35173503	     89.99559364	      0.00000000	      0.00000000	     17.39455499	    -17.35244777	     -0.12671357	     37.21936014	     89.99559364	      0.00000000	      0.00000000
